<?xml version="1.0" encoding="utf-8"?>
<!-- Generator: Adobe Illustrator 27.0.0, SVG Export Plug-In . SVG Version: 6.00 Build 0)  -->
<svg version="1.1" id="Layer_1" xmlns="http://www.w3.org/2000/svg" xmlns:xlink="http://www.w3.org/1999/xlink" x="0px" y="0px"
	 viewBox="0 0 302.3 286.1" style="enable-background:new 0 0 302.3 286.1;" xml:space="preserve">
<style type="text/css">
	.st0{fill:#5295F7;}
	.st1{fill:#FFFFFF;}
</style>
<g>
	<path class="st0" d="M6.2,50.7h15.5v2.4H8.4l0.5-0.6v22.4H6.1L6.2,50.7L6.2,50.7z M19.2,61.3v2.4h-11v-2.4H19.2z"/>
	<path class="st0" d="M26.2,53.7c-0.3-0.2-0.5-0.2-0.6-0.3c-0.2-0.2-0.3-0.3-0.3-0.6s-0.2-0.5-0.2-0.8c0-0.3,0-0.5,0.2-0.8
		c0.2-0.2,0.3-0.5,0.3-0.6c0.2-0.2,0.3-0.3,0.6-0.3s0.5-0.2,0.8-0.2s0.5,0,0.8,0.2c0.2,0.2,0.5,0.2,0.6,0.3s0.3,0.3,0.3,0.6
		c0,0.3,0.2,0.5,0.2,0.8c0,0.3,0,0.5-0.2,0.8c-0.2,0.2-0.2,0.3-0.3,0.6c-0.2,0.3-0.3,0.3-0.6,0.3c-0.2,0.2-0.5,0.2-0.8,0.2
		C26.6,53.9,26.5,53.7,26.2,53.7z M25.5,74.9V57.7h2.6v17.2H25.5z"/>
	<path class="st0" d="M34.2,70.1c0.5,0.9,1.2,1.5,2,2c0.9,0.5,1.8,0.8,2.9,0.8c1.1,0,2-0.2,2.6-0.6c0.8-0.5,1.1-1.1,1.1-1.8
		c0-0.8-0.3-1.4-1.1-1.8c-0.8-0.5-1.7-0.8-2.9-1.1c-0.8-0.2-1.7-0.5-2.3-0.8c-0.8-0.3-1.4-0.6-1.8-0.9c-0.5-0.5-0.9-0.9-1.2-1.4
		c-0.3-0.5-0.5-1.2-0.5-2.1c0-0.8,0.2-1.4,0.5-2c0.3-0.6,0.8-1.1,1.2-1.5c0.5-0.5,1.2-0.8,1.8-0.9c0.8-0.2,1.5-0.3,2.3-0.3
		c1.4,0,2.6,0.3,3.7,0.9c1.1,0.6,1.8,1.4,2.4,2.1l-1.7,1.5c-0.5-0.6-1.1-1.2-1.8-1.5c-0.8-0.3-1.5-0.6-2.4-0.6
		c-0.9,0-1.8,0.2-2.4,0.6s-0.9,1.1-0.9,1.8c0,0.5,0.2,0.8,0.3,1.1c0.2,0.3,0.5,0.6,0.8,0.8c0.3,0.2,0.8,0.5,1.2,0.6
		c0.5,0.2,1.1,0.3,1.8,0.5c0.8,0.2,1.7,0.5,2.3,0.8c0.6,0.3,1.4,0.6,1.8,1.1c0.5,0.5,0.9,0.9,1.2,1.4c0.3,0.6,0.5,1.2,0.5,2
		c0,0.8-0.2,1.4-0.5,2c-0.3,0.6-0.8,1.1-1.4,1.5s-1.2,0.8-2,1.1c-0.8,0.3-1.5,0.3-2.4,0.3c-1.5,0-2.9-0.3-4.1-0.9
		C33.9,73.9,33,73,32.4,72L34.2,70.1z"/>
	<path class="st0" d="M49.3,49.8h2.6v10.7c0.3-0.5,0.6-0.9,0.9-1.2c0.3-0.3,0.8-0.8,1.2-0.9s1.1-0.5,1.5-0.6
		c0.5-0.2,1.1-0.2,1.7-0.2c1.1,0,2,0.2,2.7,0.5c0.8,0.3,1.5,0.8,2.1,1.4s1.1,1.4,1.4,2.3c0.3,0.9,0.5,1.8,0.5,2.9V75h-2.6v-9.7
		c0-1.8-0.5-3-1.2-4c-0.8-0.9-2-1.4-3.3-1.4c-0.6,0-1.4,0.2-2,0.5c-0.6,0.3-1.2,0.6-1.7,1.1c-0.5,0.5-0.9,1.1-1.1,1.7
		s-0.5,1.4-0.5,2.1v9.6H49L49.3,49.8L49.3,49.8z"/>
	<path class="st0" d="M78.2,50.7h3.2l8.8,19h-0.5l8.8-19h3.2v24.2H99V54.9l0.3,0.2l-8.5,17.8h-2l-8.4-17.8l0.3-0.2v19.9H78
		L78.2,50.7L78.2,50.7z"/>
	<path class="st0" d="M106.7,60.7c0.3-0.5,0.8-0.9,1.2-1.4c0.5-0.5,0.9-0.8,1.5-1.1c0.6-0.3,1.2-0.5,1.8-0.8c0.6-0.3,1.4-0.3,2-0.3
		c1.1,0,2.1,0.2,3,0.5c0.9,0.3,1.7,0.8,2.3,1.4c0.6,0.6,1.1,1.4,1.4,2.1c0.3,0.9,0.5,1.8,0.5,2.9v10.7h-2.4V72
		c-0.6,1.1-1.4,1.8-2.3,2.3c-0.9,0.5-2.1,0.8-3.2,0.8c-0.9,0-1.7-0.2-2.4-0.3c-0.8-0.2-1.4-0.6-2-1.1c-0.6-0.5-1.1-1.1-1.4-1.7
		c-0.3-0.6-0.5-1.4-0.5-2.1s0.2-1.5,0.5-2.1s0.8-1.2,1.4-1.7c0.6-0.5,1.4-0.9,2.1-1.1c0.9-0.3,1.8-0.5,2.7-0.5c1.1,0,2,0.2,2.7,0.3
		c0.8,0.2,1.5,0.5,2,0.8v-1.4c0-0.6-0.2-1.2-0.3-1.8c-0.2-0.6-0.6-1.1-0.9-1.5c-0.3-0.5-0.9-0.8-1.5-0.9c-0.6-0.2-1.2-0.3-2-0.3
		c-0.9,0-1.8,0.3-2.7,0.8c-0.9,0.5-1.7,1.1-2.1,1.8L106.7,60.7z M109.9,72.3c0.8,0.6,1.7,0.8,2.7,0.8c0.8,0,1.4-0.2,2-0.5
		c0.6-0.3,1.2-0.6,1.7-1.1c0.5-0.5,0.9-1.1,1.1-1.7c0.3-0.6,0.5-1.2,0.5-2c-0.5-0.3-1.2-0.6-2-0.9c-0.8-0.3-1.7-0.3-2.6-0.3
		c-1.4,0-2.4,0.3-3.2,0.9c-0.9,0.6-1.2,1.4-1.2,2.4S109.2,71.8,109.9,72.3z"/>
	<path class="st0" d="M125.2,57.8h2.6v2.4c0.5-0.9,1.1-1.7,1.8-2.1c0.9-0.5,1.7-0.8,2.6-0.8c0.5,0,0.8,0,1.2,0.2
		c0.5,0.2,0.8,0.2,1.1,0.3l-0.3,2.4c-0.3-0.2-0.6-0.2-0.9-0.3c-0.3-0.2-0.8-0.2-1.2-0.2c-0.6,0-1.1,0.2-1.7,0.3
		c-0.6,0.2-1.1,0.6-1.4,0.9c-0.5,0.5-0.8,1.1-0.9,1.7c-0.2,0.6-0.3,1.5-0.3,2.6v9.6h-2.6L125.2,57.8L125.2,57.8z"/>
	<path class="st0" d="M140.1,49.8v16.7l7.9-8.7h3.3l-6.5,7.2l7,10h-3.2l-5.6-8.2l-2.9,3v5h-2.6V49.8L140.1,49.8L140.1,49.8z"/>
	<path class="st0" d="M153.1,62.8c0.5-1.1,0.9-2,1.7-2.9c0.8-0.9,1.7-1.4,2.6-1.8c1.1-0.5,2.1-0.6,3.3-0.6c1.2,0,2.3,0.2,3.2,0.6
		c0.9,0.5,1.8,1.1,2.4,1.7c0.6,0.6,1.2,1.5,1.5,2.6c0.3,0.9,0.6,2,0.6,3.2c0,0.3,0,0.5,0,0.8c0,0.3,0,0.5-0.2,0.8h-14l0.2-2h11.4
		c0-0.8-0.2-1.4-0.5-2.1c-0.3-0.8-0.6-1.2-1.1-1.7c-0.5-0.5-1.1-0.8-1.7-1.1c-0.6-0.3-1.2-0.3-2-0.3c-0.9,0-1.7,0.2-2.3,0.5
		c-0.6,0.3-1.4,0.8-1.8,1.4c-0.5,0.6-0.9,1.2-1.2,2.1c-0.3,0.8-0.5,1.7-0.5,2.6c0,0.9,0.2,1.8,0.5,2.6c0.3,0.8,0.6,1.5,1.2,2.1
		c0.5,0.6,1.2,1.1,1.8,1.4c0.8,0.3,1.5,0.5,2.4,0.5c1.1,0,2.1-0.3,2.9-0.8c0.8-0.5,1.7-1.2,2.3-2.1l1.8,1.5
		c-0.5,0.6-0.9,1.2-1.4,1.7c-0.5,0.5-1.1,0.9-1.7,1.2c-0.6,0.3-1.2,0.6-2,0.8c-0.6,0.2-1.4,0.3-2.1,0.3c-1.2,0-2.3-0.2-3.3-0.6
		c-1.1-0.5-2-1.1-2.7-1.8c-0.8-0.8-1.4-1.7-1.7-2.9c-0.3-1.2-0.6-2.3-0.6-3.5C152.5,65.1,152.6,63.9,153.1,62.8z"/>
	<path class="st0" d="M181.2,57.8v2.1h-11v-2.1H181.2z M173.2,58.3v-6.1h2.6v6.1H173.2z M175.7,59.5v10c0,1.2,0.3,2.1,0.8,2.6
		c0.5,0.6,1.2,0.8,2.1,0.8c0.3,0,0.8,0,1.4-0.2c0.6-0.2,0.9-0.3,1.4-0.6l0.3,2.3c-0.5,0.2-0.9,0.5-1.5,0.6s-1.2,0.2-1.8,0.2
		c-0.8,0-1.5-0.2-2.1-0.3c-0.6-0.2-1.2-0.6-1.7-1.1c-0.5-0.5-0.8-0.9-1.1-1.7c-0.3-0.6-0.3-1.4-0.3-2.3V59.3L175.7,59.5L175.7,59.5z
		"/>
</g>
<g>
	<path class="st0" d="M16.3,138.7c-3.3-2.9-5.2-6-6.2-9.7c-1-4-0.8-4.9,2.9-6.5c5.7-2.4,11.5-4.5,17.3-6.5c4.1-1.5,7.5-3.9,10.6-6.9
		c3.2-3.2,7.1-5.3,11.1-7.1c12-5.3,24.6-8,37.7-9c11.1-0.8,22.2-0.5,33.2,1.1c14.6,2.1,28.7,5.9,42.4,11.4
		c5.7,2.3,10.8,1.2,15.5-2.7c7.8-6.3,15.8-12.1,25.5-15.3c4.1-1.4,8.3-2.5,12.6-0.9c0.7,0.3,1.4,0.7,2.1,1.3
		c-11,2.4-21.5,5.4-29.1,14.5c3.7-1.6,7.4-3.6,11.2-4.9c6.4-2.2,12.8-4,19.3-5.8c1.9-0.5,2.7,0.3,3,2.7c0.3,2.3,0,2.6-2.1,2.8
		c-6.4,0.7-12.6,2.3-18.1,5.8c-0.7,0.4-1.3,0.9-2,1.4c-0.1,0.1-0.2,0.3-0.4,0.8c2.7-0.7,5.2-1.3,7.6-1.8c4-0.8,8.1-1.5,12.1-2.1
		c0.9-0.1,2.6,0.3,2.6,0.8c0.2,1.4-0.1,2.9-1.8,3.6c-2.9,1.3-5.8,2.8-8.7,4.3c-0.6,0.3-1.1,0.9-1.6,1.6c3.1-0.8,6.1-1.6,9.7-2.5
		c-1.6,4.1-4.1,6.6-7,9.4c1.8,0.4,3.3,0.8,4.9,1.1c6.6,1.2,13.2,2.5,19.9,3.5c1.3,0.2,2.8-0.1,4.1-0.6c8.1-2.9,16.1-6.2,24.2-8.9
		c3.1-1,6.6-1,10-1.1c2.4-0.1,4.7,2.6,4.4,5c-0.1,0.5-0.9,1.1-1.5,1.2c-5.7,1.8-11.5,3.5-17.2,5.2c-1.2,0.4-2.4,0.7-3.6,1.4
		c4.3-0.6,8.5-1.1,12.8-1.7c2.9-0.4,5.7-0.8,8.6-1.3c1.8-0.3,2.6,0.4,2.8,2.1c0.9,5.4,0.9,5.5-4.3,6c-6.6,0.7-13.2,1.4-19.9,2.3
		c0.4,0.1,0.9,0.3,1.3,0.3c7.1,0.4,14.2,0.9,21.4,1.2c1.6,0.1,2.4,0.5,2.1,2.3c-0.2,1.1-0.1,2.2-0.1,3.2c-0.2,2.6-0.6,3-3.3,2.6
		c-7-1-14-2-21-2.7c5.8,1.7,11.5,3.5,17.3,5.2c6,1.7,6,1.6,4.9,7.6c-0.5,2.8-0.9,3-3.6,1.9c-6.1-2.4-12.3-4.9-18.4-7.3
		c-0.4-0.1-0.7-0.3-1.3,0c0.6,0.3,1.1,0.7,1.7,1c5.9,3.5,11.8,7,17.7,10.5c0.8,0.5,2.1,0.8,1.5,2.2c-0.5,1.2-1.6,1.3-2.7,1
		c-10.9-2.6-21.9-5.2-32.1-10.1c-3.7-1.8-7.1-2.4-11.1-1.9c-9.9,1.4-19.9,2.8-29.4,6c-2.6,0.9-5,2.3-7.4,3.5c-1.2,0.6-1.6,1.7-1.5,3
		c0.8,8.6-2.5,14.5-10.3,18.5c-1,0.5-2,1.4-2.5,2.4c-9.5,16.7-23.5,28.3-41,35.9c-12.4,5.4-25.5,8.1-39,8.6
		c-6.1,0.2-12.4,0.7-18.3-0.5c-14.4-2.9-27.3-9.3-38.5-19c-9.8-8.5-16.3-18.9-19.5-31.4c-1-4-1.6-8.2-1.9-12.3
		c-0.4-5.2-2.4-8.1-7.3-9.8c-1.4-0.5-2.8-1-4.1-1.7c-4.5-2.1-6.7-7.6-4.9-12.1c0.3-0.8,1.5-1.4,2.4-1.6
		C13.2,138.9,14.5,138.9,16.3,138.7z M12.9,126.4c0.1,1.1,0.1,1.7,0.3,2.2c1.1,3.9,3.4,6.8,7,8.7c0.7,0.4,1.7,1.3,1.7,1.9
		c-0.1,0.7-1.1,1.6-1.8,1.8c-1.9,0.6-3.9,0.9-5.9,1.1c-1.5,0.2-2.1,0.9-2,2.4c0.1,3.1,2.2,5.2,6.1,6.7c2.4,0.9,4.6,2.1,6.7,3.6
		c2.3,1.6,3.8,3.9,3.9,6.9c0,2.7,0.4,5.4,0.7,8c1.6,11.3,6.1,21.3,13.6,29.9c7.6,8.7,16.9,15,27.5,19.3c6,2.4,12.2,4.9,18.5,5.5
		c8,0.8,16.3,0.2,24.4-0.7c14.3-1.6,27.7-6,40-13.6c11.8-7.3,21.3-16.8,28.1-29c0.7-1.2,1.9-2.3,3.1-2.9c7.1-3.3,10.3-9.1,9-16.7
		c-0.3-1.6,0.1-2.9,1.4-3.7c2.4-1.5,4.7-3.2,7.3-4.2c12.3-4.9,25.4-6.5,38.5-7.6c2.2-0.2,3.3-1.1,4.1-2.9c1.5-3.2,1.7-6.6,1.6-10.1
		c-0.1-3.2-0.3-3.5-3.5-3.6c-10-0.3-20-0.6-30.1-0.9c-1.4,0-2.2-0.4-2.7-1.8c-2-5.3-8.8-7-12.6-2.7c-0.6,0.7-2.1,1.1-3,0.9
		c-14.2-2.8-28.3-5.8-42.5-8.7c-2.6-0.5-5.2-0.8-6.2-3.9c-0.1-0.2-0.3-0.4-0.5-0.6c-4.4-4.8-11.4-5.7-17.1-1.9c-1.5,1-2.8,1.3-4.5,1
		c-2.8-0.5-5.7-0.9-8.6-1.2c-1.7-0.2-2.6-0.8-3-2.6c-0.7-3.6-3.1-5.7-6.3-5.8c-3.6-0.1-6.6,2-7.4,5.6c-0.4,2-1.4,2.4-3.2,2.3
		c-10-0.5-19.2,2.8-28.2,6.6c-1.4,0.6-2,1.5-1.7,3c0.1,0.7,0.2,1.5,0.3,2.2c0.5,6.9-1.6,13-8.4,16.5c-4.8,2.4-10.6,2.2-14.2-1
		c-2.5-2.2-3.9-5.1-4.8-8.3c-0.4-1.3-1-1.6-2.2-1.2c-6.8,2.4-13.5,1.7-20.3-0.1C15,126.9,14.2,126.7,12.9,126.4z M62.3,125.6
		c0-6.1-4.7-10.9-10.6-10.9c-5.7,0.1-10.5,4.9-10.5,10.6c0,6,4.6,10.6,10.5,10.7C57.6,136,62.3,131.4,62.3,125.6z"/>
	<path class="st1" d="M12.9,126.4c1.2,0.3,2.1,0.5,2.9,0.7c6.7,1.8,13.5,2.6,20.3,0.1c1.2-0.4,1.8-0.1,2.2,1.2
		c0.9,3.1,2.3,6.1,4.8,8.3c3.7,3.2,9.5,3.4,14.2,1c6.8-3.5,8.9-9.6,8.4-16.5c0-0.7-0.1-1.5-0.3-2.2c-0.3-1.5,0.3-2.4,1.7-3
		c9-3.8,18.2-7.1,28.2-6.6c1.8,0.1,2.8-0.4,3.2-2.3c0.8-3.6,3.7-5.7,7.4-5.6c3.1,0.1,5.6,2.2,6.3,5.8c0.3,1.8,1.3,2.4,3,2.6
		c2.9,0.3,5.7,0.7,8.6,1.2c1.7,0.3,3.1,0,4.5-1c5.7-3.8,12.7-2.9,17.1,1.9c0.2,0.2,0.4,0.4,0.5,0.6c0.9,3.1,3.6,3.4,6.2,3.9
		c14.2,2.9,28.3,5.9,42.5,8.7c0.9,0.2,2.4-0.2,3-0.9c3.9-4.4,10.6-2.6,12.6,2.7c0.5,1.4,1.4,1.8,2.7,1.8c10,0.3,20,0.6,30.1,0.9
		c3.1,0.1,3.3,0.4,3.5,3.6c0.1,3.5-0.1,6.8-1.6,10.1c-0.8,1.8-1.9,2.7-4.1,2.9c-13.1,1.1-26.1,2.8-38.5,7.6c-2.6,1-4.9,2.7-7.3,4.2
		c-1.3,0.8-1.7,2.1-1.4,3.7c1.3,7.6-1.9,13.4-9,16.7c-1.2,0.6-2.4,1.7-3.1,2.9c-6.8,12.1-16.3,21.6-28.1,29
		c-12.3,7.6-25.8,12-40,13.6c-8.1,0.9-16.3,1.5-24.4,0.7c-6.3-0.6-12.5-3.1-18.5-5.5c-10.6-4.3-19.9-10.6-27.5-19.3
		c-7.5-8.6-12-18.6-13.6-29.9c-0.4-2.7-0.7-5.3-0.7-8c-0.1-3.1-1.5-5.3-3.9-6.9c-2.1-1.4-4.4-2.7-6.7-3.6c-3.9-1.5-5.9-3.6-6.1-6.7
		c-0.1-1.5,0.5-2.2,2-2.4c2-0.3,4-0.6,5.9-1.1c0.8-0.2,1.8-1.1,1.8-1.8c0-0.6-0.9-1.5-1.7-1.9c-3.6-1.9-5.9-4.8-7-8.7
		C13.1,128.1,13.1,127.5,12.9,126.4z M98.6,158.4c0.5,0.9,0.8,1.5,1.3,2.1c4.3,6.2,10.1,10.7,16.5,14.6c2.8,1.7,8,0.6,10.3-2.6
		c-3.6-2.4-7.1-4.9-10.8-7.4c0.5,0.1,0.9,0.1,1.3,0.3c3.5,1.8,7.1,3.5,10.5,5.4c1.6,0.9,2.6,0.4,3.5-0.7c0.3-0.4,0-1.8-0.5-2.3
		c-1.4-1.4-3-2.7-4.6-3.9c-2.1-1.5-4.4-2.8-6.5-4.2c0.5-0.2,0.9-0.1,1.2,0c4.5,1.3,8.4,3.6,11.9,6.6c0.8,0.7,1.5,1.1,2.4,0.1
		c0.8-0.9,1.5-1.7,0.3-2.7c-2.7-2.4-5.5-4.7-8.3-7c-1.3-1-2.8-1.8-4.3-2.7c0.5-0.2,0.9-0.1,1.3,0c4.7,1.5,8.9,3.9,12.5,7.2
		c0.4,0.4,1.7,0.7,1.8,0.5c0.5-0.7,0.8-1.6,0.9-2.4c0-0.5-0.5-1.1-0.9-1.5c-1.5-1.5-3-3.1-4.7-4.4c-2.6-1.9-5.4-3.6-8.5-5.6
		c5.2,1.4,9.5,3.6,13.3,6.6c3.4,2.7,3.5,2.7,5-1.6c0.4-1.1,0.2-1.8-0.8-2.3c-1.4-0.7-2.8-1.4-4.2-2c-8.8-4.2-18-7.2-27.7-8.3
		c-4.4-0.5-8.6-0.1-11.9,3.2c-4.5,4.5-5,10.3-4.8,16.3c0,0.1,0.2,0.2,0.5,0.5c0.6-2,1.1-3.9,1.8-5.8c1.2-3.4,2.6-6.7,5.4-9.1
		c1.7-1.4,4-1.7,5.6-0.7c1.8,1,2.8,3.3,2.4,5.4c-0.7,4.2-3.6,7.1-7.9,7.8C100.9,158,99.9,158.2,98.6,158.4z M136,131.6
		c6.1,0,11.1-4.8,11.1-10.7c0-6-4.9-11-10.8-11.1c-6-0.1-11,4.9-11,10.9C125.3,126.6,130.1,131.6,136,131.6z M175.6,143
		c4.8,0,8.7-3.7,8.7-8.2c0-4.7-3.9-8.5-8.6-8.5c-4.8,0-8.4,3.6-8.3,8.4C167.3,139.4,170.9,143,175.6,143z M209.9,131.4
		c-0.2-0.1-0.3-0.1-0.5-0.2c0-0.6,0-1.2-0.1-1.8c-0.4-2.5-2.7-5-5.1-5.4c-2.4-0.5-4.9,0.6-6.2,2.8c-1.8,3-1.7,6.1,0.1,9
		c2.2,3.6,6.9,3.9,9.5,0.6C208.7,134.9,209.2,133,209.9,131.4z M105.5,102.8c-3,0-5.9,3.1-5.9,6.3c0,3.9,2.7,7.1,6,7
		c3.2-0.1,5.9-3.3,5.9-7C111.5,105.7,108.7,102.8,105.5,102.8z M87,114.9c-3.3,0-5.7,2.4-5.8,5.7c0,3.4,2.6,6,6,6
		c3.1,0,5.7-2.7,5.7-6.1C93,117.5,90.2,114.9,87,114.9z M229.6,141.5c2.5,0,4.8-2.4,4.7-4.9c-0.1-2.5-2.4-4.7-4.9-4.6
		c-2.4,0-4.6,2.4-4.6,5C224.8,139.4,227.2,141.6,229.6,141.5z"/>
	<path class="st1" d="M62.3,125.6c0,5.8-4.7,10.4-10.5,10.4c-5.9,0-10.5-4.7-10.5-10.7c0-5.7,4.7-10.6,10.5-10.6
		C57.6,114.7,62.3,119.5,62.3,125.6z M51.7,132.1c3.8,0,6.7-2.8,6.8-6.5c0.1-3.8-3.1-6.9-7-6.9c-3.5,0-6.6,3.2-6.6,6.9
		C44.9,129.1,48,132.1,51.7,132.1z"/>
	<path class="st0" d="M98.6,158.4c1.3-0.2,2.3-0.4,3.2-0.5c4.2-0.7,7.2-3.6,7.9-7.8c0.3-2.1-0.7-4.3-2.4-5.4c-1.6-1-4-0.7-5.6,0.7
		c-2.8,2.4-4.2,5.7-5.4,9.1c-0.6,1.9-1.2,3.8-1.8,5.8c-0.3-0.3-0.5-0.4-0.5-0.5c-0.2-6,0.3-11.8,4.8-16.3c3.3-3.3,7.5-3.7,11.9-3.2
		c9.7,1.2,18.9,4.2,27.7,8.3c1.4,0.7,2.8,1.3,4.2,2c1,0.5,1.2,1.2,0.8,2.3c-1.5,4.2-1.6,4.3-5,1.6c-3.8-3.1-8.1-5.2-13.3-6.6
		c3.1,2,5.9,3.7,8.5,5.6c1.7,1.3,3.2,2.9,4.7,4.4c0.4,0.4,0.9,1,0.9,1.5c-0.1,0.8-0.4,1.7-0.9,2.4c-0.1,0.2-1.4-0.1-1.8-0.5
		c-3.7-3.3-7.8-5.7-12.5-7.2c-0.4-0.1-0.8-0.2-1.3,0c1.4,0.9,3,1.7,4.3,2.7c2.8,2.3,5.6,4.6,8.3,7c1.2,1,0.5,1.8-0.3,2.7
		c-0.9,1-1.6,0.6-2.4-0.1c-3.5-3-7.5-5.3-11.9-6.6c-0.4-0.1-0.7-0.2-1.2,0c2.2,1.4,4.4,2.7,6.5,4.2c1.6,1.2,3.2,2.4,4.6,3.9
		c0.5,0.5,0.8,1.9,0.5,2.3c-0.8,1.1-1.8,1.6-3.5,0.7c-3.4-2-7-3.7-10.5-5.4c-0.3-0.2-0.7-0.2-1.3-0.3c3.7,2.6,7.3,5,10.8,7.4
		c-2.3,3.2-7.5,4.3-10.3,2.6c-6.4-3.9-12.2-8.4-16.5-14.6C99.5,160,99.2,159.3,98.6,158.4z"/>
	<path class="st0" d="M136,131.6c-5.9,0-10.7-5-10.7-10.9c0-6,5-10.9,11-10.9c6,0.1,10.8,5.1,10.8,11.1
		C147.1,126.8,142.1,131.6,136,131.6z"/>
	<path class="st0" d="M175.6,143c-4.7,0-8.2-3.6-8.3-8.3c0-4.9,3.5-8.4,8.3-8.4c4.8,0,8.6,3.8,8.6,8.5
		C184.3,139.3,180.4,143,175.6,143z"/>
	<path class="st0" d="M209.9,131.4c-0.7,1.7-1.2,3.5-2.3,4.9c-2.6,3.3-7.3,2.9-9.5-0.6c-1.8-2.9-1.9-6-0.1-9
		c1.3-2.2,3.8-3.2,6.2-2.8c2.4,0.5,4.7,2.9,5.1,5.4c0.1,0.6,0.1,1.2,0.1,1.8C209.6,131.2,209.8,131.3,209.9,131.4z"/>
	<path class="st0" d="M105.5,102.8c3.3,0,6,2.8,6,6.3c0,3.7-2.7,6.9-5.9,7c-3.3,0.1-6-3.1-6-7C99.6,105.9,102.4,102.8,105.5,102.8z"
		/>
	<path class="st0" d="M87,114.9c3.2,0,5.9,2.5,6,5.6c0,3.3-2.6,6.1-5.7,6.1c-3.4,0-6-2.6-6-6C81.3,117.4,83.7,115,87,114.9z"/>
	<path class="st0" d="M229.6,141.5c-2.4,0-4.8-2.2-4.8-4.5c0-2.6,2.1-4.9,4.6-5c2.6,0,4.9,2.1,4.9,4.6
		C234.4,139.2,232.1,141.5,229.6,141.5z"/>
	<path class="st0" d="M51.7,132.1c-3.7,0-6.8-2.9-6.8-6.6c0-3.6,3.1-6.8,6.6-6.9c3.8,0,7,3.1,7,6.9C58.5,129.3,55.6,132,51.7,132.1z
		"/>
</g>
<g>
	<path class="st0" d="M6.1,12.2h19.6v3.5H9.9v8.6h13.9v3.4H9.9v12.9H6.1V12.2z"/>
	<path class="st0" d="M30.6,12.2h3.9v28.3h-3.9V12.2z"/>
	<path class="st0" d="M40.7,12.2h4.5l14.1,22.8V12.2H63v28.3h-4.3L44.4,17.7v22.8h-3.7V12.2z"/>
	<path class="st0" d="M86.2,12.2h4.3l10.3,28.3h-4.2L93.7,32H82.5l-3.1,8.5h-3.9L86.2,12.2z M92.5,28.9l-4.3-12.5l-4.6,12.5H92.5z"
		/>
	<path class="st0" d="M104.3,12.2h4.5l14.1,22.8V12.2h3.7v28.3h-4.3l-14.3-22.8v22.8h-3.7V12.2z"/>
	<path class="st0" d="M132.9,12.2h11.3c3.8,0,6.8,1.4,8.9,4.1c1.9,2.5,2.8,5.7,2.8,9.6c0,3-0.6,5.7-1.7,8.1c-2,4.3-5.3,6.4-10.1,6.4
		h-11.3V12.2z M143.5,37.2c1.3,0,2.3-0.1,3.1-0.4c1.5-0.5,2.6-1.5,3.6-2.9c0.7-1.1,1.3-2.6,1.6-4.4c0.2-1.1,0.3-2.1,0.3-3
		c0-3.5-0.7-6.2-2-8.2c-1.4-1.9-3.6-2.9-6.6-2.9h-6.6v21.7H143.5z"/>
	<path class="st0" d="M174.6,31.4c0.1,1.6,0.5,2.9,1.1,3.9c1.2,1.9,3.4,2.8,6.5,2.8c1.4,0,2.6-0.2,3.8-0.6c2.2-0.8,3.3-2.2,3.3-4.3
		c0-1.5-0.5-2.6-1.4-3.3c-0.9-0.6-2.4-1.2-4.4-1.7l-3.7-0.9c-2.4-0.6-4.1-1.2-5.1-1.9c-1.7-1.2-2.6-2.9-2.6-5.3
		c0-2.5,0.9-4.6,2.6-6.3c1.7-1.6,4.1-2.4,7.3-2.4c2.9,0,5.3,0.7,7.3,2.1c2,1.4,3,3.7,3,6.9h-3.6c-0.2-1.5-0.6-2.7-1.2-3.5
		c-1.1-1.5-3-2.2-5.7-2.2c-2.2,0-3.7,0.5-4.7,1.4c-0.9,0.9-1.4,2.1-1.4,3.3c0,1.4,0.6,2.4,1.7,3c0.7,0.4,2.4,0.9,5,1.5l3.8,0.9
		c1.9,0.4,3.3,1,4.3,1.8c1.7,1.3,2.6,3.2,2.6,5.8c0,3.1-1.1,5.4-3.3,6.7c-2.2,1.3-4.8,2-7.7,2c-3.4,0-6.1-0.9-8.1-2.7
		c-1.9-1.8-2.9-4.2-2.9-7.3H174.6z"/>
	<path class="st0" d="M218.4,14.3c2,1.9,3,4,3.3,6.4h-3.7c-0.4-1.8-1.2-3.3-2.5-4.3c-1.2-1.1-3-1.6-5.2-1.6c-2.7,0-4.9,1-6.6,2.9
		c-1.7,2-2.5,5-2.5,9c0,3.3,0.8,6,2.3,8.1s3.8,3.1,6.8,3.1c2.8,0,4.9-1.1,6.3-3.3c0.8-1.1,1.3-2.6,1.7-4.5h3.7
		c-0.3,3-1.4,5.5-3.3,7.5c-2.2,2.4-5.2,3.6-9,3.6c-3.2,0-6-1-8.2-3c-2.9-2.6-4.4-6.7-4.4-12.2c0-4.2,1.1-7.6,3.3-10.3
		c2.4-2.9,5.6-4.4,9.8-4.4C213.7,11.5,216.5,12.4,218.4,14.3z"/>
	<path class="st0" d="M235.1,12.2h4.3l10.3,28.3h-4.2l-2.9-8.5h-11.2l-3.1,8.5h-3.9L235.1,12.2z M241.4,28.9l-4.3-12.5l-4.6,12.5
		H241.4z"/>
	<path class="st0" d="M253.2,12.2h3.8v24.9h14.2v3.4h-18V12.2z"/>
	<path class="st0" d="M275.5,12.2H296v3.5h-16.8v8.6h15.5v3.3h-15.5v9.6h17.1v3.4h-20.8V12.2z"/>
</g>
</svg>
