<?xml version="1.0" encoding="UTF-8"?>
<svg id="Layer_1" xmlns="http://www.w3.org/2000/svg" version="1.1" viewBox="0 0 270 265.8">
  <!-- Generator: Adobe Illustrator 29.5.1, SVG Export Plug-In . SVG Version: 2.1.0 Build 141)  -->
  <defs>
    <style>
      .st0 {
        fill: #ca6235;
      }
    </style>
  </defs>
  <path class="st0" d="M19.5,118.6v-3.5c7.3-2.8,14.4-6.5,20.8-10.9.2-1-1.9-5.5-2.5-6.9-1.3-2.9-8-13.8-6.7-15.8,2.1-3.2,15.1-7.4,19.1-7.8,38.8-3.6,63.6,24.8,75.6,58.2-20,14-45.5,23.3-70,16.5-15.8-4.4-30-14.4-36.4-29.8ZM122.2,108.5c-7.7-7.6-12.3-12.7-16.9-23.3-9.6-22.2-6.8-53,14.3-67.6.9-.2,8.8,9.1,10.7,10.7s6.5,5.5,7.2,5.5c6.6-4.4,12.7-9.9,17.4-16.2,17.6,10.2,21.2,32.6,19.5,51.3-1.1,12.4-10.2,27.8-18.2,37.1-2.3,2.7-15.9,16.6-18.2,17.3-1.6.5-4.6-2.3-6-3.5-4.1-3.5-7-8.7-9.8-11.4ZM214,73.9c10.9-.7,22,1.6,30.4,8.9l-10,21.5c.1,1.2,11,7.2,13,8.3,5.9,3.3,9.3.9,6.2,9.3-5.5,15-26,25.6-40.9,28.3-22.7,4-45.1-5.9-63.8-17.9,10.1-29.6,31.8-56.3,65.2-58.5ZM130.2,145.5c4.9,17.2,7,39,1.6,56.2-5.2,16.5-21.6,34.8-38.7,39.1-2.5.6-9.4,2.2-11.3.9-1-.7-2.6-20.7-4.4-23.7-4.5-1.6-21.5,3.7-24.2,2.1-5.2-3.2-1.7-23.8.2-29.2,11.7-32.3,44.7-44.5,76.7-45.4ZM147.6,147.1c.4-.3.3-1.6,2.1-1.7,4.2-.1,13.2,2.1,17.7,3.1,19.5,4.5,35.9,12.8,46.9,30,7.9,12.4,12.7,28.5,6.8,42.7l-24.1-3.4c-2.1,7.9-4.1,15.9-4.4,24.2-24.9,1.4-46.8-22.9-51.5-45.8-3-15-2-31.9,2.2-46.6,1.1-2.8,2.5-3.6,4.3-2.6Z"/>
</svg>