<?xml version="1.0" encoding="UTF-8"?>
<svg id="Layer_1" xmlns="http://www.w3.org/2000/svg" version="1.1" viewBox="0 0 328.4 157.1">
  <!-- Generator: Adobe Illustrator 29.5.1, SVG Export Plug-In . SVG Version: 2.1.0 Build 141)  -->
  <defs>
    <style>
      .st0 {
        fill: #c96136;
      }
    </style>
  </defs>
  <path class="st0" d="M201.7,45c-1.2,4-7.1,20.4-9.6,22.8-1.2,1.2-2.8,2.9-4.7,2.9s-1.7-.3-2.5-.9c-1.7-3-3.4-6-5.3-8.8-1.4,2.2-4.1,6.8-5.7,8.5-.7.8-1.9,1.7-3,1.7-3.5,0-7.6-15.2-7.6-18.2s1-4.1,2.7-4.1.7.1,1,.2c1.9.9,2.1,3.9,2.7,5.7.8,2.5,1.9,5,3.2,7.3.8-1.2,1.4-2.5,2.1-3.8,1-2.1,2.8-6.3,5.4-6.3s3,.6,3.4,1.5c.6,1,.9,2.2,1.4,3.2,1,2.3,2.3,4.5,3.5,6.7,1.4-2.5,2.3-5.2,3.2-7.8,1.2-3.9,2.7-7.7,3.6-11.7.3-1.8,1.6-1.6,3-2.1,1.7.1,3.4,0,3.4,2.3s0,.6-.1.9Z"/>
  <path class="st0" d="M221,77.3c-.3-3-3-2.2-5.2-2.2s-3-.2-4.2-1.2c-3.4-2.5-4.6-8.9-4.6-12.8s0-1.9.3-2.9c.7-3.6,4-6.6,7.7-6.6s4.4.8,6.9,1.5c.3-1.3.3-2.6.3-4,0-2.3.8-5.3-2.2-5.3s-6,4-8.2,4-2.2-2.1-2.2-3.2c0-3.7,7.6-6.7,10.7-6.7s5.7,1.4,6.6,4.1c1.1,3.2,1.3,8,1.3,11.3,0,7.2-1.4,14.3-1.5,21.5,0,1-1.1,3.3-2.3,3.5-.3,0-.7,0-1,0-1,0-2.3-.1-2.5-1.3Z"/>
  <path class="st0" d="M248,41.1c-2.3,2.1-4.5.3-7.7,4.7-.6.8-1,1.9-1,3,0,2.2,1.6,5.6,2.3,8,.2.9.5,1.8.9,2.6,1,3.1,1.9,6.4,1.9,9.7s-.5,4.9-1.8,7c-1.3,2.3-4.4,6-6.7,7.3-.4.2-1.1.3-1.6.3-1.2,0-2.7-.9-2.7-2.2s.2-.9.3-1.3c1.7-4.4,5.8-2.9,5.8-10s-2-8.3-3.2-12.2c-.8-2.8-1.4-5.7-1.4-8.7,0-4.5,1.6-8.2,5.7-10.2,1.8-.8,4.7-2.3,6.7-2.3s2.5,0,3.2,1.6c.1.3.3.6.3,1,0,.8-.6,1.4-1.1,1.9Z"/>
  <path class="st0" d="M266.8,77c1-4.7,1.9-9.6,1.9-14.4s-.7-8.4-2.6-11.3c-1-1.4-2.8-1.8-4.5-1.8-4.5,0-3.6,8.1-3.9,11.1-.1,2-.3,4-.3,6s.1,3.6.1,5.5-2.3,3.8-4.7,3.8-2.3-.4-3.1-1.9c1-9.4,1.4-18.8,1.9-28.1.3-4.1.4-9.4,1-13.3.2-1.1,1.6-3.6,2.9-3.6,1.9,0,4.5.1,4.5,2.7s-.8,3.6-.9,5.4c0,2.2-.6,4.4-.6,6.6.1.3.5.4.8.7,1,0,2-.1,3-.1,3.5,0,7.8.8,9.8,4,2.5,4,3.2,10.5,3.2,15.2s-.5,8.8-1,13.2c-1.4,1.5-3.3,2.2-5.4,2.2s-1.8-.9-2.2-1.8Z"/>
  <path class="st0" d="M286.6,75.2c-.5,1.1-1.7,1.7-2.9,2.1-1.3,0-3-.7-3.3-2.1v-1.4c0-5.6.5-11.1,1.1-16.7.1-1.4.3-5.8.5-6.8.3-1,1.8-1.4,2.6-1.9.3,0,.5,0,.8,0,1.2,0,2.5.5,2.5,1.9,0,8.3-1.4,16.6-1.4,24.9ZM292.6,41.1c-1.7,1.8-2.9,2.4-5.4,2.4s-1.8-.1-2.6-.3c-1.2-.8-3.6-2.1-3.6-3.8,0-3.5,3.6-7.6,7.2-7.6s5.6,2.9,5.6,6.5-.3,1.9-1.2,2.7Z"/>
  <path class="st0" d="M201.7,108.8c-1.2,4-7.1,20.4-9.6,22.8-1.2,1.2-2.8,2.9-4.7,2.9s-1.7-.3-2.5-.9c-1.7-3-3.4-6-5.3-8.8-1.4,2.2-4.1,6.8-5.7,8.5-.7.8-1.9,1.7-3,1.7-3.5,0-7.6-15.2-7.6-18.2s1-4.1,2.7-4.1.7.1,1,.2c1.9.9,2.1,3.9,2.7,5.7.8,2.5,1.9,5,3.2,7.3.8-1.2,1.4-2.5,2.1-3.8,1-2.1,2.8-6.3,5.4-6.3s3,.6,3.4,1.5c.6,1,.9,2.2,1.4,3.2,1,2.3,2.3,4.5,3.5,6.7,1.4-2.5,2.3-5.2,3.2-7.8,1.2-3.9,2.7-7.7,3.6-11.7.3-1.8,1.6-1.6,3-2.1,1.7.1,3.4,0,3.4,2.3s0,.6-.1.9Z"/>
  <path class="st0" d="M210.1,135.7c-2.3-1.9-3.1-3.4-3.1-6.4s.2-3,.6-4.4c2.3-7.7,8-17.2,17.1-17.2s6.1,1.4,7.4,4.3c.3.5.3.8.8,1.2l.8.8c2.5-.3,5.1-2.2,7.3-2.2s1.8.6,2.3,1.4c-.3,2.3-2.1,3.2-4.1,4.1-2,.9-5.4,2.3-6,4.7-.3,1.3-.3,2.5-.8,3.9-1.8,5.2-6.1,9.9-11.4,11.6-1.4.4-3,.6-4.5.6-2.7,0-4.3-.6-6.5-2.3Z"/>
  <path class="st0" d="M257.3,113.8v.3c.3.4.6.8,1.1.8.9,0,1.6-.9,2.6-1,2.1-1.4,4.1-4.8,6.8-4.8s3,.8,3,2.3-2.5,3.6-3.2,5.2c-1.7,3.6-4.1,6.5-4.1,10.7s.9,5.1,4,5.1,3.9-1.2,6-1.2,2.5.7,3.2,1.9v.2c0,1.2-.9,2.4-2.1,2.7-2.4.5-5.6.9-8.1.9-5.9,0-9.1-3-9.1-9s.5-5,1-7.4c-.4-.2-.9-.3-1.3-.3s-1,0-1.3.3c-1.7,1-2.9,4.6-4.2,6.3-2.7,3.4-6.5,8.7-11.2,8.7s-1.9-.6-1.9-1.9.2-.8.5-1.1c.8-.8,1.8-1.4,2.6-2.2,3.4-3.1,6.5-6.9,8.4-11.1-.5-1.8-1-3.6-1-5.5s.5-3.6,1.7-5c1.2-1.2,3.2-2.6,4.9-2.6s2.6,1.1,2.6,2.5-1,3.4-1,5.2Z"/>
  <path class="st0" d="M282.9,117.4c.2.1.6.3.8.3s.6,0,.8-.3c3.1-1.1,5.3-5.5,8.7-5.5s2.7.5,2.7,1.9-.2,1.2-.5,1.7c-3.4,2.2-6.9,4.3-9.7,7.4.8,2.3,2.8,4.1,4.5,5.9.4.4.8,1,1.2,1.4,1.4,1.3,6.9,4.3,6.9,6.4s-.3,1.1-.5,1.7c-.8.7-1.9,1.2-3,1.2s-.9,0-1.3-.3c-3-3.2-7-5.4-10-8.7l-.5.5c0,.5-.1.9-.1,1.4,0,1.4.4,2.9.4,4.3,0,2.4-2.1,3.8-4.3,3.8s-1-.1-1.4-.5l-1-1.6c0-1.9.1-3.6.1-5.5,0-9.5-.8-19-.8-28.5s.4-3.2,2.1-4.2h.8c1.2,0,2.6.5,3,1.6.5,1.6.2,7.4.2,9.3s0,4.3.8,6.4Z"/>
  <path class="st0" d="M315.9,104.9c-2.3,2.1-4.5.3-7.7,4.7-.6.8-1,1.9-1,3,0,2.2,1.6,5.6,2.3,8,.2.9.5,1.8.9,2.6,1,3.1,1.9,6.4,1.9,9.7s-.5,4.9-1.8,7c-1.3,2.3-4.4,6-6.7,7.3-.4.2-1.1.3-1.6.3-1.2,0-2.7-.9-2.7-2.2s.2-.9.3-1.3c1.7-4.4,5.8-2.9,5.8-10s-2-8.3-3.2-12.2c-.8-2.8-1.4-5.7-1.4-8.7,0-4.5,1.6-8.2,5.7-10.2,1.8-.8,4.7-2.3,6.7-2.3s2.5,0,3.2,1.6c.1.3.3.6.3,1,0,.8-.6,1.4-1.1,1.9Z"/>
  <path class="st0" d="M152.1,71.7c-.4-.7-12.1-5.5-13.7-7.3-.6-.8,5.4-12,6.5-13.6.7-2.9-8.7-6.1-10.9-6.5-7.3-1.1-15.4,0-22.2,2.6-3,1.2-5.7,3.1-8.7,4.3,2.8-10.4,2.6-23-3.1-32.4-1.1-1.9-5.8-8.3-8.1-7.7-1.6.4-9.6,10.5-11.7,10.3l-11.6-10.8c-13.1,8.8-14.9,26.4-11.3,40.7-10.3-6.9-24.5-10.7-36.4-5.8-1.3.5-5.5,2.5-5.5,3.8,0,1.6,7.1,12.6,6.4,14.1-1.2,2-13.9,7.2-14,7.9,4.1,14.6,20.9,22.8,35.2,22.9-10.1,9-18,20.2-16.5,34.4.1,1.2.8,4.8,2,5.2,1.8.5,11.2-2.3,15.3-1.6.3,1.5,1,3,1.4,4.4.5,3.6,1.1,7.1,1.8,10.6,4.3.6,8.7-.4,12.5-2.4,6.5-2.5,13.5-10.3,17-16.4,1.2-2.1,2.3-4.4,2.9-6.8,2.2,3.1,3.5,6.9,5.6,10.1,4.4,6.7,12.2,13.8,20.2,15.6,1.5.3,6.7,1.5,7.6.2.9-1.3,1.7-14.5,3-15.4l15.9,2.1c5.6-14.7-3.8-30.3-14.8-39.6,6.4.2,13-1.7,18.8-4.4,1.1-1.2,2.4-2,3.9-2.2,3-1.9,6-4.1,8.3-6.9,1.2-1.5,5.3-8.1,4.4-9.6ZM97,75.7c-1.2,2.7-3.7,1.8-4.1,2.2-.2.2-1.1,5.8-1.2,6.6,0,.5,0,1,0,1.4l4.3-.6c0,1.4.2,2.6-.5,3.8-.9,1.6-9.2,4.9-11.2,5.3-7.7,1.6-14.4-2.1-21.5-4.6-2.4-9.9,5.2-.3,6.3-1.6.3-2.4-1.3-9.2-3-10.4-1.3-.8-2.8-.4-3.3-2.8-.9-4.3,3.1-6.4,6.1-3.6,0,6.4,2.3,12.2,4.1,18.2.6,1.6,5.1,1,5.3,0l.9-16.1c-.2-.9-3.4-2.2-3.6-5.3-.5-6.1,8.5-5.8,8.1.6,0,1.6-1.2,2.2-1.5,3.6-.8,2.9-1.6,12-1.2,14.9.1,1.1.8,2.1,1.1,3.1,1,.7,6-.5,6.6-1.6.3-.5,1.9-11,1.9-11.9,0-1.8-1.3-2.4-.9-4.3,1.3-6,9.6-2.4,7.1,3Z"/>
</svg>