<?xml version="1.0" encoding="utf-8"?>
<!-- Generator: Adobe Illustrator 27.0.0, SVG Export Plug-In . SVG Version: 6.00 Build 0)  -->
<svg version="1.1" id="Layer_1" xmlns="http://www.w3.org/2000/svg" xmlns:xlink="http://www.w3.org/1999/xlink" x="0px" y="0px"
	 viewBox="0 0 273.25 258.5" style="enable-background:new 0 0 273.25 258.5;" xml:space="preserve">
<style type="text/css">
	.st0{fill:#C1272D;}
	.st1{fill:#FFFFFF;}
	.st2{fill:none;}
</style>
<g>
	<path class="st0" d="M196.68,112.39c-1.92-0.75-4.09,0.21-4.83,2.13l6.97,2.7C199.56,115.3,198.6,113.14,196.68,112.39z"/>
	<path class="st0" d="M205.42,115.21c-1.98-0.57-4.05,0.58-4.62,2.57l7.18,2.05C208.56,117.84,207.41,115.78,205.42,115.21z"/>
	<path class="st0" d="M213.93,116.17c-2.06-0.1-3.81,1.49-3.91,3.55l3.56,0.65l3.9-0.28C217.58,118.03,215.99,116.27,213.93,116.17z
		"/>
	<path class="st0" d="M222.17,115.16c-2,0.52-3.22,2.5-2.69,4.49l3.9-0.5l3.36-1.67C226.22,115.49,224.17,114.64,222.17,115.16z"/>
	<path class="st0" d="M238.27,136.32c1.26-1.63,0.96-3.98-0.68-5.24l-4.56,5.92C234.66,138.26,237.01,137.96,238.27,136.32z"/>
	<path class="st0" d="M230.15,145.25c1.54-1.38,1.66-3.74,0.29-5.27l-5.56,4.99C226.26,146.5,228.62,146.63,230.15,145.25z"/>
	<path class="st0" d="M222.37,151.72c1.64-1.25,1.96-3.59,0.72-5.23l-5.95,4.52C218.38,152.64,220.73,152.96,222.37,151.72z"/>
	<path class="st0" d="M214.13,157.52c1.73-1.13,2.2-3.45,1.07-5.17l-6.25,4.1C210.09,158.17,212.4,158.65,214.13,157.52z"/>
	<path class="st0" d="M205.44,162.72c1.84-0.93,2.58-3.18,1.65-5.02l-6.67,3.36C201.35,162.91,203.6,163.65,205.44,162.72z"/>
	<g>
		<g>
			<path class="st1" d="M243.92,79.11c0,0,3.92,16.81-5.49,29.65c-9.42,12.83-15.86,23.2-55.37,5.83
				C143.87,97.36,74.1,61.11,10.63,126.92c-0.9,0.94-0.96,2.43-0.13,3.44l9.01,10.49l-3.58,2.1c0,0,58.15,58.87,172.01,19.84
				c0,0,40.79-14.19,52.56-43.93C244.13,109.67,246.51,95.98,243.92,79.11z"/>
		</g>
		<g>
			<path class="st1" d="M244.37,102.23c0,0,31.91-17.37,14.71-68.31c0,0-5.05,54.36-49.04,55.76c0,0,1.46,13.84,31.61,13.9"/>
		</g>
		<g>
			<line class="st2" x1="161.09" y1="104.95" x2="179.84" y2="88.59"/>
		</g>
		<g>
			<line class="st2" x1="181.54" y1="96.97" x2="168.24" y2="108.01"/>
		</g>
		<g>
			<line class="st2" x1="175.85" y1="111.38" x2="183.23" y2="105.25"/>
		</g>
		<g>
			<path class="st1" d="M68.24,92.04l47.21-39.2c0.89-0.74,2.15,0.25,1.63,1.28c-1.52,3.02-2.81,6.9-2.31,10.82
				c0,0,0.28,1.17,0.83,2.7c1.28,3.61,4.28,6.33,7.97,7.34c4.92,1.35,12.51,3.55,15.56,5.1c2.13,1.08,5.99,4,7.71,5.65
				c3.92,3.75,4.58,7.28,4.58,7.28s1.68,3.91,2.73,7.93c0,0,23.88-19.84,24.25-19.36c1.98,2.6,1.43,7.01,1.43,7.01s2.52,4,1.71,8.37
				c-0.34,1.83,2.77,4.03,1.61,8.04c-0.05,0.19,0.1,0.35,0.14,0.54c0,0,3.95,6.14,2.41,10.18"/>
		</g>
		<g>
			<line class="st2" x1="86.17" y1="89.27" x2="114.77" y2="64.94"/>
		</g>
		<g>
			<line class="st2" x1="119.52" y1="73.39" x2="100.48" y2="89.19"/>
		</g>
		<g>
			<line class="st2" x1="129.14" y1="76.39" x2="111.82" y2="90.77"/>
		</g>
		<g>
			<line class="st2" x1="139.14" y1="80.08" x2="124.34" y2="92.67"/>
		</g>
		<g>
			<line class="st2" x1="146.85" y1="85.73" x2="135.07" y2="95.51"/>
		</g>
		<g>
			<line class="st2" x1="151.43" y1="93.01" x2="144.62" y2="98.6"/>
		</g>
		<g>
			<path class="st1" d="M71.23,171.06c0,0,17.09,33.84,36.67,34.98c2.41,0.14,4.28-2.11,3.63-4.44l-9.41-25.78"/>
		</g>
		<g>
			<path class="st1" d="M81.23,173.25c0,0,12.55,23.66,28.28,22.78"/>
		</g>
		<g>
			<path class="st1" d="M92.33,175.29c0,0,3.89,9.74,14.64,13.78"/>
		</g>
		<g>
			<path class="st1" d="M145.92,173.45c0,0,19.61,18.94,32.92,15.47c0,0-2.6-7.81-1.7-14.9c0.44-3.46,1.72-6.75,4.56-8.88"/>
		</g>
		<g>
			<path class="st1" d="M163.43,169.93c0,0,4.99,4.79,13.71,4.1"/>
		</g>
		<g>
			<path class="st1" d="M155.26,171.75c0,0,7.14,9.63,21.85,8.67"/>
		</g>
		<g>
			<line class="st2" x1="94.6" y1="117.21" x2="132.83" y2="121.26"/>
		</g>
		<g>
			<line class="st2" x1="96.97" y1="123.34" x2="127.43" y2="126.56"/>
		</g>
		<g>
			<line class="st2" x1="98.97" y1="129.43" x2="115.67" y2="131.06"/>
		</g>
		<g>
			<line class="st2" x1="100.33" y1="134.89" x2="107.16" y2="135.61"/>
		</g>
		<g>
			<path class="st1" d="M77.46,113.94c0,0,19.46,25.37-9.91,44.66"/>
		</g>
		<g>
			<circle class="st1" cx="49.57" cy="118.16" r="6.08"/>
		</g>
		<g>
			<path class="st1" d="M13.12,125.55c0,0,20.88-0.66,33.67,4.59c4.13,1.69,1.91,8.23-1.59,6.76c-6.99-2.92-17.54-3.93-25.13-4.21"
				/>
		</g>
		<g>
			<path class="st1" d="M40.52,135.34c-6.1-0.67-16.43,1.51-16.43,1.51l-4.02-4.16"/>
		</g>
	</g>
	<g>
		<g>
			<path class="st0" d="M14.44,144.17c-0.34-0.41-0.5-0.95-0.43-1.49c0.08-0.59,0.43-1.11,0.94-1.41l1.58-0.93l-7.5-8.74
				c-1.49-1.79-1.39-4.37,0.2-6.03C70.4,62.16,137.5,92.14,177.59,110.05c2.16,0.96,4.24,1.89,6.24,2.77
				c37.25,16.38,43.62,7.67,52.44-4.38l0.6-0.82c5.51-7.51,6.15-16.62,5.85-22.38c-0.17-1.88-0.4-3.82-0.71-5.83
				c-0.16-1.03,0.52-1.99,1.54-2.19c1.02-0.2,2.01,0.45,2.25,1.46c0.07,0.28,0.69,3.03,0.84,7.08c1.31,16.29-2.03,27.95-4.35,33.8
				c-11.96,30.21-52.02,44.45-53.72,45.04c-59.34,20.34-103.43,13.79-129.96,4.72c-28.87-9.87-43.45-24.41-44.06-25.03
				C14.52,144.26,14.48,144.22,14.44,144.17z M20.99,139.62c0.36,0.43,0.51,1,0.42,1.55c-0.1,0.56-0.44,1.06-0.93,1.35l-1.31,0.77
				c10.79,9.27,67.92,52.03,168.14,17.67c0.39-0.13,40.09-14.26,51.39-42.81c1.01-2.55,2.22-6.26,3.12-11.05
				c-0.55,0.95-1.16,1.89-1.84,2.81l-0.6,0.82c-9.51,13-17.02,23.26-57.11,5.64c-2.01-0.88-4.09-1.81-6.26-2.78
				c-39.17-17.5-104.72-46.78-164,14.69c-0.22,0.23-0.24,0.62-0.03,0.86l8.99,10.47C20.98,139.6,20.99,139.61,20.99,139.62z"/>
		</g>
		<g>
			<path class="st0" d="M211,95.79c-2.51-3.03-2.85-5.65-2.88-5.91c-0.05-0.53,0.11-1.07,0.47-1.47c0.35-0.41,0.86-0.64,1.39-0.66
				c17.44-0.55,30.66-9.72,39.3-27.23c6.55-13.29,7.87-26.65,7.88-26.78c0.08-0.91,0.79-1.63,1.7-1.74c0.91-0.11,1.77,0.44,2.05,1.3
				c17.52,51.88-15.28,70.45-15.62,70.63l-1.85-3.39c1.17-0.65,27.09-15.51,16.16-58.13c-1.17,5.27-3.23,12.44-6.81,19.71
				c-8.75,17.81-22.56,27.91-40.06,29.34c1.89,3.46,8.22,10.15,28.92,10.19l-0.01,3.86C222.95,105.47,214.66,100.2,211,95.79z"/>
		</g>
		<g>
			
				<rect x="158.01" y="94.85" transform="matrix(0.7535 -0.6574 0.6574 0.7535 -21.6106 135.9138)" class="st0" width="24.88" height="3.86"/>
		</g>
		<g>
			
				<rect x="166.24" y="100.56" transform="matrix(0.7694 -0.6387 0.6387 0.7694 -25.1416 135.3364)" class="st0" width="17.29" height="3.86"/>
		</g>
		<g>
			
				<rect x="174.73" y="106.4" transform="matrix(0.7694 -0.6387 0.6387 0.7694 -27.7982 139.6472)" class="st0" width="9.59" height="3.86"/>
		</g>
		<g>
			<path class="st0" d="M69.47,93.52L67,90.55l47.21-39.2c1.1-0.92,2.66-0.94,3.78-0.04c1.12,0.88,1.45,2.4,0.81,3.67
				c-1.23,2.43-2.59,6.08-2.12,9.69l0,0c0.02,0.02,0.28,1.03,0.74,2.32c1.07,2.99,3.56,5.28,6.66,6.13
				c5.55,1.52,12.81,3.66,15.92,5.23c2.3,1.17,6.29,4.17,8.18,5.98c3.76,3.6,4.85,7.12,5.09,8.08c0.25,0.59,1.1,2.65,1.91,5.17
				c21.84-18.1,22.44-18.03,23.43-17.92c0.52,0.06,1.02,0.32,1.34,0.76c1.96,2.57,1.96,6.22,1.87,7.75
				c0.75,1.41,2.38,5.11,1.63,9.15c0.02,0.14,0.32,0.73,0.53,1.15c0.73,1.44,1.8,3.58,1.19,6.44c0.98,1.63,3.99,7.2,2.35,11.51
				l-3.61-1.38c0.97-2.54-1.35-7.06-2.23-8.45c-0.13-0.2-0.22-0.43-0.27-0.67c-0.04-0.04-0.34-0.65-0.1-1.46
				c0.5-1.73-0.12-2.96-0.77-4.26c-0.56-1.11-1.13-2.25-0.88-3.59c0.66-3.55-1.42-6.96-1.45-7c-0.23-0.37-0.33-0.82-0.28-1.26
				c0.09-0.73,0.14-2.45-0.28-3.96c-4.13,3.11-15.17,12.15-22.24,18.03c-0.51,0.42-1.19,0.56-1.82,0.35
				c-0.63-0.2-1.11-0.71-1.28-1.35c-1-3.82-2.62-7.62-2.64-7.65c-0.06-0.13-0.1-0.27-0.12-0.41c-0.01-0.02-0.67-3.03-4.02-6.24
				c-1.66-1.58-5.33-4.35-7.25-5.32c-2.2-1.11-7.6-2.87-15.2-4.96c-4.33-1.18-7.8-4.39-9.28-8.56c-0.58-1.64-0.89-2.89-0.89-2.89
				c-0.38-2.85-0.03-5.76,1.02-8.77L69.47,93.52z"/>
		</g>
		<g>
			
				<rect x="81.69" y="75.17" transform="matrix(0.7617 -0.6479 0.6479 0.7617 -26.0157 83.4616)" class="st0" width="37.55" height="3.86"/>
		</g>
		<g>
			
				<rect x="97.62" y="79.36" transform="matrix(0.7694 -0.6387 0.6387 0.7694 -26.5637 88.999)" class="st0" width="24.74" height="3.86"/>
		</g>
		<g>
			
				<rect x="109.22" y="81.65" transform="matrix(0.7694 -0.6387 0.6387 0.7694 -25.6089 96.2217)" class="st0" width="22.52" height="3.86"/>
		</g>
		<g>
			
				<rect x="122.03" y="84.45" transform="matrix(0.7616 -0.6481 0.6481 0.7616 -24.5726 105.9752)" class="st0" width="19.43" height="3.86"/>
		</g>
		<g>
			
				<rect x="133.29" y="88.7" transform="matrix(0.7694 -0.6387 0.6387 0.7694 -25.3878 110.9236)" class="st0" width="15.31" height="3.86"/>
		</g>
		<g>
			
				<rect x="143.62" y="93.88" transform="matrix(0.7732 -0.6342 0.6342 0.7732 -27.1852 115.6077)" class="st0" width="8.81" height="3.86"/>
		</g>
		<g>
			<path class="st0" d="M82.39,191.43c-7.57-9.12-12.5-18.76-12.88-19.51c-0.48-0.95-0.1-2.11,0.85-2.59s2.11-0.11,2.59,0.85
				c0.17,0.33,16.83,32.86,35.06,33.92c0.53,0.03,1.03-0.19,1.36-0.6c0.32-0.4,0.43-0.91,0.29-1.4l-9.36-25.63
				c-0.36-1,0.15-2.11,1.15-2.47s2.11,0.14,2.47,1.15l9.41,25.78c0.52,1.85,0.15,3.62-0.96,5s-2.82,2.13-4.59,2.03
				C98.11,207.4,89.19,199.62,82.39,191.43z"/>
		</g>
		<g>
			<path class="st0" d="M86.86,184.91c-4.4-5.31-7.09-10.3-7.33-10.75c-0.5-0.94-0.14-2.11,0.8-2.61s2.1-0.15,2.61,0.8
				c0.12,0.23,12.16,22.56,26.46,21.76c1.07-0.05,1.98,0.76,2.04,1.82c0.06,1.06-0.76,1.98-1.82,2.03
				C100.35,198.48,92.3,191.46,86.86,184.91z"/>
		</g>
		<g>
			<path class="st0" d="M94.58,182.47c-2.77-3.33-3.96-6.24-4.05-6.47c-0.39-0.99,0.09-2.11,1.07-2.5c0.99-0.4,2.12,0.08,2.51,1.07
				c0.04,0.09,3.76,9.03,13.52,12.69c0.99,0.37,1.5,1.49,1.13,2.49c-0.38,1-1.49,1.5-2.49,1.13
				C100.87,188.84,97.08,185.49,94.58,182.47z"/>
		</g>
		<g>
			<path class="st0" d="M144.44,174.68c-0.62-0.75-0.59-1.86,0.1-2.57c0.74-0.77,1.96-0.79,2.73-0.05
				c0.18,0.17,17.06,16.31,29.13,15.32c-0.75-2.93-1.83-8.4-1.16-13.6c0.58-4.54,2.37-7.97,5.31-10.18c0.85-0.64,2.09-0.49,2.7,0.38
				c0.64,0.85,0.47,2.06-0.39,2.7c-2.08,1.56-3.35,4.11-3.8,7.58c-0.84,6.55,1.59,13.97,1.61,14.05c0.17,0.51,0.12,1.06-0.14,1.53
				c-0.25,0.47-0.69,0.81-1.21,0.95c-14.19,3.7-33.91-15.15-34.74-15.96C144.53,174.79,144.48,174.74,144.44,174.68z"/>
		</g>
		<g>
			<path class="st0" d="M161.95,171.16c-0.62-0.75-0.59-1.85,0.1-2.57c0.74-0.77,1.95-0.79,2.72-0.06
				c0.18,0.18,4.55,4.19,12.22,3.57c1.07-0.09,1.99,0.71,2.08,1.77c0.08,1.06-0.71,1.99-1.77,2.08c-9.48,0.76-14.97-4.41-15.2-4.63
				C162.04,171.27,161.99,171.22,161.95,171.16z"/>
		</g>
		<g>
			<path class="st0" d="M154.01,173.27c-0.17-0.2-0.27-0.33-0.3-0.38c-0.64-0.85-0.46-2.06,0.4-2.69c0.85-0.63,2.03-0.42,2.7,0.39
				c0.28,0.35,6.78,8.78,20.18,7.9c1.07-0.07,1.98,0.74,2.05,1.8s-0.74,1.98-1.8,2.05C163.17,183.27,155.58,175.17,154.01,173.27z"
				/>
		</g>
		<g>
			<path class="st0" d="M93.11,118.44c-0.32-0.39-0.49-0.9-0.44-1.44c0.11-1.06,1.06-1.83,2.12-1.71l38.24,4.05
				c1.05,0.11,1.83,1.06,1.72,2.12c-0.11,1.06-1.06,1.83-2.12,1.71l-38.24-4.05C93.87,119.07,93.42,118.82,93.11,118.44z"/>
		</g>
		<g>
			<path class="st0" d="M95.49,124.57c-0.32-0.39-0.49-0.9-0.44-1.44c0.11-1.06,1.06-1.83,2.12-1.71l30.45,3.23
				c1.06,0.11,1.83,1.06,1.72,2.12c-0.11,1.06-1.06,1.83-2.12,1.71l-30.45-3.23C96.25,125.2,95.8,124.94,95.49,124.57z"/>
		</g>
		<g>
			<path class="st0" d="M97.49,130.66c-0.32-0.38-0.49-0.89-0.44-1.42c0.1-1.06,1.05-1.84,2.11-1.73l16.7,1.63
				c1.06,0.1,1.84,1.05,1.73,2.11c-0.1,1.06-1.05,1.84-2.11,1.73l-16.7-1.63C98.26,131.3,97.8,131.04,97.49,130.66z"/>
		</g>
		<g>
			<path class="st0" d="M98.84,136.12c-0.32-0.39-0.49-0.9-0.43-1.44c0.11-1.06,1.06-1.83,2.12-1.71l6.84,0.73
				c1.05,0.11,1.82,1.06,1.71,2.12s-1.06,1.83-2.12,1.71l-6.84-0.73C99.6,136.75,99.15,136.49,98.84,136.12z"/>
		</g>
		<g>
			<path class="st0" d="M66.06,159.83c-0.05-0.06-0.09-0.12-0.13-0.18c-0.59-0.89-0.34-2.09,0.55-2.67
				c8.68-5.7,13.74-12.47,15.03-20.13c1.98-11.71-5.51-21.65-5.59-21.75c-0.65-0.84-0.49-2.05,0.36-2.71
				c0.85-0.64,1.98-0.67,2.71,0.36c0.35,0.46,8.59,11.38,6.33,24.74c-1.48,8.76-7.11,16.4-16.72,22.71
				C67.77,160.76,66.68,160.58,66.06,159.83z"/>
		</g>
		<g>
			<path class="st0" d="M43.4,123.28c-2.82-3.4-2.35-8.46,1.05-11.28c3.4-2.82,8.46-2.35,11.28,1.05s2.35,8.46-1.05,11.28
				C51.29,127.15,46.23,126.68,43.4,123.28z M52.76,115.51c-1.46-1.76-4.08-2-5.85-0.54c-1.76,1.46-2,4.08-0.54,5.84
				c1.46,1.76,4.08,2.01,5.84,0.54C53.98,119.9,54.22,117.27,52.76,115.51z"/>
		</g>
		<g>
			<path class="st0" d="M11.63,126.79c-0.26-0.32-0.43-0.73-0.45-1.17c-0.03-1.06,0.8-1.96,1.87-1.99
				c0.87-0.03,21.45-0.61,34.46,4.73c1.88,0.77,3.11,2.36,3.38,4.35c0.28,2.08-0.57,4.26-2.11,5.44c-1.26,0.97-2.84,1.16-4.34,0.54
				c-7.21-3.01-18.42-3.84-24.46-4.07c-1.07-0.04-1.89-0.94-1.86-2c0.04-1.06,0.94-1.9,2-1.85c7.7,0.29,18.42,1.28,25.8,4.36
				c0.25,0.1,0.36,0.07,0.51-0.04c0.39-0.3,0.73-1.08,0.63-1.86c-0.08-0.62-0.42-1.05-1.02-1.3c-12.25-5.02-32.67-4.45-32.88-4.44
				C12.56,127.5,12,127.23,11.63,126.79z"/>
		</g>
		<g>
			<path class="st0" d="M40.52,135.34c-6.1-0.67-16.43,1.51-16.43,1.51l-4.02-4.16"/>
			<path class="st0" d="M18.68,134.03l2.77-2.68l3.29,3.4c2.85-0.54,10.76-1.9,15.99-1.33l-0.42,3.84
				c-5.73-0.63-15.72,1.46-15.83,1.48l-1.04,0.22L18.68,134.03z"/>
		</g>
	</g>
</g>
<g>
	<path class="st0" d="M51.38,41.66l7.94-6.48l1.21,1.49l-6.62,5.41l0.04-0.56l9.11,11.15l-1.62,1.32L51.38,41.66z M62.31,41.53
		l1.21,1.49l-5.35,4.37l-1.21-1.49L62.31,41.53z"/>
	<path class="st0" d="M62.25,33.22l1.72-1.18l8.99,13.13l-1.72,1.18L62.25,33.22z"/>
	<path class="st0" d="M68.19,29.11l1.88-1.01l14.55,6.82l-0.18,0.23l-6.18-11.47l1.82-0.98l7.55,14.01l-1.86,1l-14.51-6.74
		l0.18-0.23l6.14,11.39l-1.84,0.99L68.19,29.11z"/>
	<path class="st0" d="M94.66,17.17l2.18-0.67l10.69,13.35l-2.11,0.65l-2.62-3.36l0.56,0.2l-7.98,2.47l0.38-0.49l-0.24,4.25
		l-2.09,0.65L94.66,17.17z M95.45,27.93l6.86-2.12l-0.12,0.44l-5.97-7.37l0.32-0.1l-0.77,9.46L95.45,27.93z"/>
	<path class="st0" d="M106.53,13.84l2.11-0.32l11.42,11.31L119.82,25l-1.97-12.88l2.04-0.31l2.41,15.73l-2.09,0.32l-11.4-11.22
		l0.24-0.16L111,29.26l-2.06,0.32L106.53,13.84z"/>
	<path class="st0" d="M125.83,11.32l5.88,0.1c1.1,0.02,2.12,0.23,3.05,0.65c0.93,0.42,1.72,0.98,2.38,1.71
		c0.66,0.72,1.17,1.58,1.54,2.56c0.37,0.98,0.54,2.04,0.53,3.18c-0.02,1.14-0.23,2.19-0.63,3.15c-0.4,0.96-0.94,1.79-1.62,2.49
		c-0.68,0.7-1.5,1.24-2.44,1.63c-0.94,0.38-1.97,0.57-3.07,0.55l-5.88-0.1L125.83,11.32z M131.43,25.4
		c0.83,0.01,1.59-0.13,2.28-0.43s1.27-0.72,1.76-1.24c0.49-0.53,0.87-1.16,1.15-1.89c0.28-0.73,0.42-1.52,0.43-2.37
		s-0.11-1.65-0.36-2.39c-0.25-0.75-0.61-1.4-1.08-1.95c-0.47-0.55-1.04-0.99-1.72-1.31c-0.67-0.32-1.43-0.49-2.26-0.5l-4.18-0.07
		l0.44-0.47l-0.21,13.05l-0.42-0.49L131.43,25.4z"/>
	<path class="st0" d="M148.27,24.17c0.24,0.89,0.66,1.63,1.25,2.21c0.59,0.58,1.4,0.97,2.42,1.16c0.42,0.08,0.84,0.1,1.23,0.06
		c0.4-0.04,0.76-0.14,1.08-0.3s0.6-0.38,0.82-0.65c0.22-0.28,0.37-0.6,0.44-0.98c0.07-0.36,0.05-0.69-0.06-1s-0.28-0.59-0.54-0.86
		s-0.58-0.54-0.98-0.81c-0.41-0.27-0.87-0.56-1.4-0.87c-0.63-0.36-1.22-0.72-1.75-1.08c-0.54-0.36-0.99-0.76-1.37-1.18
		c-0.38-0.43-0.64-0.9-0.8-1.42s-0.17-1.11-0.04-1.79c0.13-0.69,0.39-1.28,0.77-1.77c0.38-0.49,0.84-0.87,1.38-1.15
		c0.53-0.27,1.11-0.45,1.73-0.53c0.63-0.08,1.24-0.06,1.83,0.05c0.66,0.12,1.25,0.32,1.76,0.59c0.51,0.27,0.95,0.58,1.32,0.94
		c0.37,0.36,0.68,0.75,0.93,1.18c0.25,0.42,0.43,0.85,0.57,1.28l-1.8,0.88c-0.21-0.69-0.58-1.32-1.1-1.89
		c-0.52-0.57-1.2-0.93-2.03-1.09c-0.36-0.07-0.73-0.08-1.09-0.05c-0.37,0.04-0.7,0.13-1.01,0.29s-0.57,0.36-0.79,0.62
		c-0.22,0.26-0.37,0.59-0.44,0.98c-0.08,0.41-0.04,0.78,0.12,1.11c0.16,0.33,0.38,0.63,0.66,0.89c0.28,0.27,0.6,0.5,0.96,0.72
		c0.36,0.21,0.7,0.42,1.02,0.61c0.69,0.41,1.32,0.8,1.88,1.18c0.56,0.38,1.04,0.79,1.42,1.23s0.65,0.92,0.82,1.45
		c0.16,0.53,0.18,1.14,0.04,1.85c-0.14,0.72-0.4,1.33-0.81,1.83c-0.4,0.49-0.88,0.88-1.44,1.15c-0.56,0.27-1.15,0.44-1.79,0.51
		c-0.64,0.07-1.27,0.04-1.88-0.07c-0.72-0.14-1.37-0.35-1.94-0.63c-0.57-0.29-1.07-0.63-1.49-1.02c-0.42-0.4-0.77-0.83-1.05-1.31
		c-0.28-0.48-0.48-0.97-0.61-1.48L148.27,24.17z"/>
	<path class="st0" d="M162.18,19.96c0.68-0.83,1.46-1.49,2.34-1.97c0.88-0.48,1.83-0.78,2.84-0.89s2.03,0.01,3.04,0.34
		c0.65,0.21,1.25,0.5,1.8,0.86c0.55,0.36,1.04,0.77,1.46,1.25c0.42,0.48,0.78,1.01,1.08,1.59c0.3,0.59,0.52,1.22,0.68,1.92
		l-1.93,0.58c-0.28-1.15-0.73-2.08-1.36-2.78s-1.4-1.2-2.31-1.5c-0.76-0.25-1.51-0.33-2.24-0.24c-0.74,0.09-1.42,0.32-2.06,0.69
		c-0.64,0.37-1.2,0.87-1.69,1.5s-0.88,1.37-1.16,2.22c-0.28,0.87-0.42,1.7-0.39,2.51c0.02,0.81,0.18,1.55,0.47,2.23
		c0.29,0.68,0.71,1.26,1.25,1.76c0.54,0.5,1.2,0.87,1.96,1.12c0.96,0.31,1.91,0.37,2.86,0.18c0.95-0.19,1.87-0.66,2.77-1.39
		l1.12,1.58c-0.5,0.46-1.05,0.83-1.65,1.13c-0.59,0.29-1.21,0.51-1.84,0.64s-1.27,0.18-1.93,0.14c-0.65-0.04-1.31-0.16-1.96-0.38
		c-1.02-0.33-1.91-0.85-2.67-1.53s-1.35-1.49-1.78-2.4c-0.42-0.91-0.67-1.91-0.73-2.98s0.09-2.16,0.46-3.27
		C160.98,21.75,161.5,20.79,162.18,19.96z"/>
	<path class="st0" d="M184.37,23.36l2.04,1.01L185,41.41l-1.98-0.98l0.4-4.24l0.27,0.54l-7.49-3.69l0.61-0.1l-3.1,2.92l-1.96-0.97
		L184.37,23.36z M177.55,31.72l6.44,3.17l-0.38,0.24l0.73-9.46l0.3,0.15l-7.06,6.34L177.55,31.72z"/>
	<path class="st0" d="M194.97,29.04l1.74,1.15l-7.95,12.01l-0.07-0.54l7.42,4.92l-1.06,1.6l-8.87-5.87L194.97,29.04z"/>
	<path class="st0" d="M205.67,54.62l-1.24,1.46l-7.96-6.76l10.3-12.13l7.78,6.6l-1.24,1.46l-6.46-5.48l0.54-0.08l-8.34,9.83
		l-0.01-0.54L205.67,54.62z M209.35,48.28l-1.24,1.46l-5.73-4.86l1.24-1.46L209.35,48.28z"/>
</g>
<g>
	<path class="st0" d="M75.31,217.23h10.25v1.58h-8.83l0.34-0.38v14.71h-1.75V217.23z M83.85,224.19v1.58h-7.22v-1.58H83.85z"/>
	<path class="st0" d="M88.4,219.17c-0.15-0.06-0.28-0.14-0.38-0.24c-0.1-0.1-0.18-0.21-0.24-0.35c-0.06-0.14-0.08-0.29-0.08-0.47
		c0-0.18,0.03-0.34,0.1-0.48c0.06-0.14,0.15-0.27,0.25-0.37c0.1-0.1,0.23-0.19,0.37-0.25c0.14-0.06,0.3-0.1,0.48-0.1
		c0.18,0,0.34,0.03,0.48,0.1c0.14,0.06,0.26,0.15,0.36,0.25c0.1,0.1,0.18,0.23,0.24,0.37c0.06,0.14,0.1,0.3,0.1,0.48
		c0,0.18-0.03,0.33-0.08,0.47c-0.06,0.14-0.14,0.25-0.24,0.35c-0.1,0.1-0.23,0.18-0.37,0.24c-0.14,0.06-0.3,0.1-0.48,0.1
		C88.72,219.27,88.55,219.24,88.4,219.17z M88.03,233.14v-11.26h1.7v11.26H88.03z"/>
	<path class="st0" d="M93.65,230c0.34,0.58,0.78,1.02,1.33,1.34c0.55,0.32,1.18,0.48,1.88,0.48c0.69,0,1.26-0.15,1.72-0.44
		c0.46-0.3,0.68-0.71,0.68-1.24c0-0.54-0.22-0.94-0.65-1.19c-0.43-0.25-1.07-0.48-1.92-0.68c-0.54-0.14-1.05-0.3-1.52-0.47
		c-0.47-0.17-0.88-0.38-1.22-0.64c-0.34-0.26-0.61-0.57-0.8-0.94s-0.29-0.82-0.29-1.37c0-0.48,0.1-0.92,0.31-1.32
		c0.21-0.4,0.49-0.74,0.84-1.01c0.35-0.27,0.76-0.48,1.22-0.64c0.46-0.15,0.96-0.23,1.49-0.23c0.9,0,1.69,0.19,2.38,0.58
		c0.69,0.38,1.22,0.85,1.58,1.39l-1.13,1.03c-0.32-0.43-0.72-0.78-1.19-1.04c-0.47-0.26-1.02-0.4-1.64-0.4
		c-0.64,0-1.17,0.14-1.58,0.43s-0.62,0.68-0.62,1.18c0,0.29,0.06,0.52,0.17,0.71c0.11,0.18,0.28,0.35,0.52,0.49
		c0.23,0.14,0.52,0.27,0.85,0.38c0.34,0.11,0.72,0.22,1.15,0.34c0.54,0.14,1.05,0.3,1.51,0.48c0.46,0.18,0.86,0.4,1.19,0.66
		c0.33,0.26,0.58,0.58,0.77,0.94c0.18,0.36,0.28,0.8,0.28,1.31c0,0.5-0.11,0.94-0.32,1.34c-0.22,0.4-0.51,0.74-0.89,1.02
		c-0.38,0.28-0.81,0.5-1.31,0.66c-0.5,0.16-1.02,0.24-1.56,0.24c-0.99,0-1.88-0.2-2.65-0.61c-0.78-0.41-1.37-0.99-1.79-1.74
		L93.65,230z"/>
	<path class="st0" d="M103.56,216.63h1.7v7.03c0.18-0.3,0.39-0.58,0.64-0.83c0.25-0.25,0.53-0.46,0.84-0.64
		c0.31-0.18,0.65-0.31,1.01-0.41c0.36-0.1,0.74-0.14,1.14-0.14c0.69,0,1.3,0.11,1.85,0.32c0.54,0.22,1.01,0.52,1.39,0.92
		c0.38,0.4,0.68,0.89,0.89,1.46s0.31,1.22,0.31,1.92v6.86h-1.7v-6.38c0-1.17-0.26-2.04-0.78-2.63c-0.52-0.58-1.27-0.88-2.24-0.88
		c-0.45,0-0.87,0.09-1.27,0.26s-0.75,0.42-1.06,0.73c-0.3,0.31-0.55,0.69-0.73,1.13c-0.18,0.44-0.28,0.92-0.28,1.43v6.34h-1.7
		V216.63z"/>
	<path class="st0" d="M122.64,217.23h2.11l5.83,12.46h-0.31l5.81-12.46h2.11v15.91h-1.75v-13.1l0.22,0.05l-5.57,11.71h-1.34
		l-5.54-11.71l0.19-0.05v13.1h-1.75V217.23z"/>
	<path class="st0" d="M141.33,223.8c0.22-0.3,0.49-0.59,0.79-0.85c0.3-0.26,0.64-0.49,1.01-0.68c0.37-0.19,0.76-0.34,1.19-0.46
		s0.86-0.17,1.31-0.17c0.72,0,1.37,0.1,1.96,0.31c0.58,0.21,1.08,0.5,1.49,0.89c0.41,0.38,0.72,0.85,0.95,1.4
		c0.22,0.55,0.34,1.17,0.34,1.86v7.03h-1.63v-1.78c-0.37,0.66-0.87,1.16-1.5,1.5c-0.63,0.34-1.35,0.52-2.15,0.52
		c-0.58,0-1.11-0.08-1.6-0.23c-0.49-0.15-0.92-0.38-1.28-0.67s-0.66-0.66-0.86-1.08c-0.21-0.42-0.31-0.89-0.31-1.4
		c0-0.53,0.11-1.01,0.34-1.44c0.22-0.43,0.54-0.8,0.95-1.12c0.41-0.31,0.89-0.56,1.45-0.73c0.56-0.18,1.17-0.26,1.82-0.26
		c0.67,0,1.27,0.07,1.79,0.2c0.52,0.14,0.96,0.32,1.31,0.54v-0.91c0-0.43-0.08-0.84-0.23-1.21c-0.15-0.38-0.36-0.7-0.62-0.97
		c-0.26-0.27-0.58-0.48-0.96-0.64c-0.38-0.15-0.8-0.23-1.26-0.23c-0.62,0-1.23,0.16-1.81,0.48c-0.58,0.32-1.07,0.71-1.45,1.18
		L141.33,223.8z M143.45,231.42c0.48,0.36,1.09,0.54,1.82,0.54c0.46,0,0.9-0.09,1.31-0.26c0.41-0.18,0.77-0.42,1.08-0.72
		s0.56-0.66,0.74-1.06c0.18-0.4,0.28-0.83,0.28-1.3c-0.32-0.24-0.75-0.44-1.28-0.6c-0.54-0.16-1.12-0.24-1.74-0.24
		c-0.85,0-1.55,0.18-2.1,0.55c-0.55,0.37-0.83,0.9-0.83,1.61C142.73,230.57,142.97,231.06,143.45,231.42z"/>
	<path class="st0" d="M153.5,221.88h1.7v1.61c0.27-0.59,0.68-1.05,1.24-1.37c0.55-0.32,1.11-0.48,1.67-0.48
		c0.26,0,0.53,0.02,0.82,0.07c0.29,0.05,0.51,0.12,0.67,0.22l-0.17,1.56c-0.16-0.08-0.35-0.14-0.58-0.19
		c-0.22-0.05-0.48-0.07-0.77-0.07c-0.37,0-0.73,0.07-1.08,0.2c-0.35,0.14-0.66,0.35-0.92,0.65c-0.26,0.3-0.48,0.67-0.64,1.13
		c-0.16,0.46-0.24,1.01-0.24,1.67v6.26h-1.7V221.88z"/>
	<path class="st0" d="M163.32,216.63v10.97l5.23-5.71h2.18l-4.34,4.7l4.56,6.55h-2.06l-3.67-5.35l-1.9,2.04v3.31h-1.68v-16.51
		H163.32z"/>
	<path class="st0" d="M171.79,225.18c0.27-0.71,0.65-1.33,1.14-1.86s1.06-0.94,1.73-1.24c0.66-0.3,1.39-0.44,2.17-0.44
		c0.78,0,1.49,0.14,2.12,0.43c0.63,0.29,1.17,0.67,1.61,1.15c0.44,0.48,0.78,1.04,1.01,1.69c0.23,0.65,0.35,1.34,0.35,2.08
		c0,0.16,0,0.32-0.01,0.48c-0.01,0.16-0.03,0.32-0.06,0.48h-9.17l0.05-1.34h7.51c-0.02-0.5-0.12-0.95-0.3-1.37s-0.43-0.78-0.73-1.08
		c-0.3-0.3-0.66-0.54-1.06-0.71c-0.4-0.17-0.83-0.25-1.3-0.25c-0.56,0-1.07,0.11-1.54,0.32s-0.86,0.52-1.2,0.9
		c-0.34,0.38-0.59,0.84-0.77,1.36c-0.18,0.52-0.26,1.08-0.26,1.69c0,0.62,0.09,1.2,0.28,1.73c0.18,0.53,0.45,0.98,0.79,1.37
		c0.34,0.38,0.76,0.68,1.24,0.9c0.48,0.22,1,0.32,1.56,0.32c0.7,0,1.35-0.16,1.93-0.48s1.09-0.8,1.52-1.44l1.25,0.96
		c-0.26,0.42-0.56,0.78-0.91,1.1c-0.35,0.32-0.73,0.59-1.14,0.8s-0.84,0.38-1.28,0.48c-0.45,0.1-0.9,0.16-1.37,0.16
		c-0.8,0-1.54-0.15-2.23-0.44c-0.69-0.3-1.28-0.71-1.76-1.24c-0.49-0.53-0.87-1.15-1.15-1.86s-0.42-1.48-0.42-2.32
		C171.38,226.68,171.52,225.9,171.79,225.18z"/>
	<path class="st0" d="M190.27,221.88v1.44h-7.2v-1.44H190.27z M185.04,222.24v-3.96h1.66v3.96H185.04z M186.72,222.96v6.62
		c0,0.78,0.17,1.35,0.52,1.7c0.34,0.35,0.8,0.53,1.36,0.53c0.25,0,0.54-0.04,0.86-0.11c0.32-0.07,0.63-0.19,0.94-0.35l0.22,1.51
		c-0.26,0.14-0.58,0.26-0.98,0.36c-0.4,0.1-0.81,0.14-1.22,0.14c-0.51,0-0.98-0.08-1.39-0.23c-0.42-0.15-0.77-0.37-1.06-0.66
		s-0.51-0.65-0.67-1.08c-0.16-0.43-0.24-0.94-0.24-1.51v-6.94H186.72z"/>
</g>
</svg>
